<svg xmlns="http://www.w3.org/2000/svg" viewBox="0 0 43.853 45.429" xml:space="preserve"><path d="M43.154,29.042c-1.891-6.329-14.252-9.354-19.606-11.097c-7.445,0.089-7.491,15.032-6.626,20.325 c1.734,10.617,6.92,7.343,14.127,3.39C36.581,38.627,45.735,37.682,43.154,29.042z"/><path d="M41.406 15.845c1.442-7.558-9.544-17.953-12.294-6.536C29.561 16.212 39.099 27.934 41.406 15.845zM5.114 20.808c-9.773-.085-2.521 16.191 5.499 14.506C19.969 33.348 11.992 20.868 5.114 20.808zM27.523 9.834C27.265 1.416 16.141-5.209 15.25 5.945 14.578 14.359 25.232 20.297 27.523 9.834z"/><path d="M7.64,6.872c-8.956,0.033-2.893,13.334,3.231,13.899C22.123,21.809,15.892,6.841,7.64,6.872z"/></svg>