<?xml version="1.0" standalone="no"?>
<!DOCTYPE svg PUBLIC "-//W3C//DTD SVG 20010904//EN"
 "http://www.w3.org/TR/2001/REC-SVG-20010904/DTD/svg10.dtd">
<svg version="1.0" xmlns="http://www.w3.org/2000/svg"
 width="908.000000pt" height="908.000000pt" viewBox="0 0 908.000000 908.000000"
 preserveAspectRatio="xMidYMid meet">
<metadata>
Created by potrace 1.14, written by Peter Selinger 2001-2017
</metadata>
<g transform="translate(0.000000,908.000000) scale(0.100000,-0.100000)"
fill="#000000" stroke="none">
<path d="M4253 8686 c-310 -59 -564 -264 -678 -545 l-32 -80 -24 25 c-29 31
-119 93 -170 116 -61 28 -154 41 -237 35 -201 -16 -420 -143 -621 -362 -90
-97 -79 -91 -174 -98 -410 -32 -994 -254 -1341 -511 l-75 -55 -164 6 c-133 5
-182 3 -261 -12 -237 -42 -402 -188 -452 -401 -36 -152 14 -431 119 -667 l26
-58 -29 -122 c-61 -261 -90 -570 -90 -972 0 -383 22 -627 86 -960 186 -961
560 -1659 1274 -2376 149 -149 186 -181 250 -214 60 -31 88 -39 147 -43 l73
-5 41 -54 c83 -107 250 -248 427 -360 102 -65 406 -215 542 -268 320 -126 716
-230 1070 -284 367 -55 902 -63 1315 -20 533 55 1076 232 1551 504 1129 648
1946 1807 2188 3105 34 183 43 256 57 460 20 313 -12 748 -82 1085 -159 766
-408 1244 -911 1745 -241 241 -441 383 -743 531 -354 172 -629 250 -1025 291
-178 18 -771 16 -913 -3 l-108 -15 -42 79 c-131 246 -362 427 -628 492 -90 22
-278 28 -366 11z m292 -407 c86 -23 170 -74 241 -145 65 -65 79 -86 174 -275
56 -112 104 -206 106 -208 2 -2 59 8 126 23 238 51 338 60 668 60 576 0 884
-62 1288 -259 274 -134 437 -250 657 -470 426 -426 644 -842 778 -1480 59
-281 77 -438 84 -746 9 -392 -16 -603 -113 -977 -296 -1144 -1084 -2130 -2120
-2650 -398 -200 -871 -329 -1329 -362 -181 -13 -653 -13 -826 0 -476 36 -1039
185 -1456 385 -421 202 -634 395 -746 677 -60 149 -75 345 -37 494 81 325 348
547 685 572 289 21 434 -20 1044 -292 740 -331 947 -395 1376 -426 521 -37
1038 36 1418 201 160 69 337 206 337 260 0 35 -53 21 -220 -61 -332 -162 -609
-224 -1050 -237 -337 -9 -681 20 -897 78 -192 51 -389 128 -869 342 -430 192
-611 260 -804 303 -113 26 -356 24 -477 -4 -275 -63 -510 -236 -641 -472 -49
-88 -99 -253 -113 -369 -10 -88 -9 -129 6 -272 10 -93 15 -172 11 -176 -8 -9
-171 152 -324 321 -571 629 -867 1245 -1012 2110 -46 277 -55 393 -55 756 0
459 22 675 101 978 45 177 45 200 -10 284 -54 83 -111 254 -127 377 -14 111
-2 142 69 174 51 22 136 26 387 18 145 -5 167 3 311 110 129 96 203 140 359
215 300 144 616 230 913 250 125 8 156 25 263 147 129 147 245 241 347 283
109 45 150 27 207 -89 41 -86 58 -158 81 -332 9 -71 20 -139 24 -151 17 -43
77 -98 190 -174 384 -258 636 -541 848 -957 44 -87 90 -167 101 -177 19 -18
21 -18 27 -2 11 28 -23 205 -61 323 -54 166 -157 365 -304 585 -72 109 -131
199 -131 202 0 2 25 23 55 46 l54 42 -109 217 c-60 120 -116 244 -126 277 -24
84 -22 230 5 315 82 259 354 408 616 338z"/>
<path d="M4357 8006 c-65 -18 -116 -61 -150 -127 -26 -48 -28 -62 -24 -129 4
-71 9 -85 95 -257 51 -101 95 -183 99 -183 3 0 49 28 102 62 53 34 148 89 211
121 63 32 116 59 118 61 2 2 -35 81 -82 174 -54 108 -99 184 -122 208 -67 66
-162 93 -247 70z"/>
<path d="M3340 6656 c-225 -48 -389 -274 -407 -557 -7 -109 9 -244 36 -304 32
-71 117 -130 282 -196 79 -31 92 -33 205 -34 120 0 120 0 200 39 103 51 178
126 227 226 40 80 67 186 67 260 0 146 -66 297 -179 410 -87 87 -168 134 -268
155 -80 17 -90 17 -163 1z m198 -181 c71 -33 170 -133 208 -210 27 -56 29 -68
29 -175 0 -103 -3 -121 -26 -170 -53 -110 -144 -182 -249 -195 l-45 -6 35 20
c47 26 73 55 107 121 25 50 28 65 28 155 0 83 -4 109 -24 152 -26 58 -40 68
-75 51 -14 -6 -36 -8 -50 -4 -35 9 -43 46 -23 109 12 38 14 54 5 64 -19 23
-79 45 -143 52 l-60 7 55 27 c74 36 154 37 228 2z m-340 -649 l47 -49 -52 28
c-69 37 -80 50 -88 110 l-6 50 26 -45 c14 -25 47 -67 73 -94z"/>
<path d="M1475 5954 c-119 -26 -209 -76 -300 -168 -92 -93 -136 -167 -165
-282 -54 -208 1 -404 155 -558 125 -125 238 -177 403 -184 127 -5 213 13 327
69 141 69 262 185 341 326 43 75 94 213 94 252 0 76 -71 191 -186 302 -138
131 -263 207 -394 238 -99 24 -177 25 -275 5z m285 -177 c30 -11 87 -40 125
-65 87 -57 235 -202 264 -260 l22 -42 -31 -77 c-63 -157 -168 -278 -299 -346
-105 -55 -115 -54 -56 5 72 73 98 143 99 263 0 92 -25 199 -60 253 l-15 23
-34 -30 c-45 -39 -96 -49 -131 -26 -23 15 -26 22 -21 61 2 25 18 64 36 92 17
27 31 52 31 55 0 4 -28 21 -62 39 -56 29 -72 32 -150 33 l-86 0 46 19 c99 39
220 40 322 3z m-570 -542 c7 -22 24 -62 37 -90 23 -48 23 -49 2 -25 -57 65
-95 213 -73 287 6 23 9 12 14 -52 4 -44 13 -98 20 -120z"/>
<path d="M2830 5551 c-50 -16 -116 -54 -153 -90 -72 -68 -69 -108 11 -144 70
-31 159 -29 210 5 48 32 99 110 108 164 5 36 3 44 -17 58 -25 17 -113 21 -159
7z"/>
</g>
</svg>
