<svg xmlns="http://www.w3.org/2000/svg" xml:space="preserve" viewBox="0 0 480 480"><path stroke="#000" stroke-miterlimit="10" d="M241.833 228.645h49.418v-49.418h-98.836V292.747c14.513 8.481 31.396 13.345 49.418 13.345v-77.447zM192.415 420.5h49.418v-63.514c-17.324 0-33.953-2.967-49.418-8.403V420.5z"/><path stroke="#000" stroke-miterlimit="10" d="M241.188 59.001C158.945 59.35 92.065 127.2 92.847 209.44c.612 64.335 42.004 118.909 99.568 139.142v-55.836c-29.756-17.388-49.535-49.991-48.652-87.141 1.228-51.698 43.037-93.935 94.721-95.656 45.722-1.523 84.726 28.256 97.241 69.551h52.369c-13.338-68.858-74.078-120.807-146.906-120.499zm49.645 233.981c-14.418 8.333-31.149 13.11-49 13.11v50.894c17.169 0 33.653-2.917 49-8.264v-55.74z"/></svg>